<svg width="21" height="20" viewBox="0 0 21 20" fill="none" xmlns="http://www.w3.org/2000/svg">
<g id="Motorcycle">
<path id="Vector" d="M16.875 9.375C16.7023 9.37539 16.5298 9.38976 16.3594 9.41797L15.9047 8.23516C16.223 8.16211 16.5485 8.12516 16.875 8.125C17.0408 8.125 17.1997 8.05915 17.3169 7.94194C17.4342 7.82473 17.5 7.66576 17.5 7.5C17.5 7.33424 17.4342 7.17527 17.3169 7.05806C17.1997 6.94085 17.0408 6.875 16.875 6.875H15.3813L14.3336 4.15078C14.2883 4.0328 14.2082 3.93134 14.104 3.85979C13.9998 3.78824 13.8764 3.74996 13.75 3.75H11.25C11.0842 3.75 10.9253 3.81585 10.8081 3.93306C10.6909 4.05027 10.625 4.20924 10.625 4.375C10.625 4.54076 10.6909 4.69973 10.8081 4.81694C10.9253 4.93415 11.0842 5 11.25 5H13.3211L14.0422 6.875H11.875C10.4297 6.875 9.25782 7.21172 8.48672 7.84844C8.30527 7.99482 8.08649 8.08753 7.85511 8.11611C7.62373 8.14469 7.38897 8.10799 7.17735 8.01016C6.35078 7.63437 2.43203 6.04141 2.08672 5.90625L1.64063 5.73125C1.51632 5.67691 1.38471 5.64111 1.25 5.625C1.10429 5.62535 0.963282 5.6766 0.851352 5.7699C0.739422 5.86319 0.663605 5.99266 0.63701 6.13592C0.610414 6.27919 0.634711 6.42724 0.7057 6.55449C0.776689 6.68174 0.889908 6.78019 1.02578 6.83281C1.06172 6.84687 4.7125 8.2625 6.66094 9.14766C7.08593 9.341 7.5564 9.41206 8.01953 9.35286C8.48266 9.29366 8.92013 9.10653 9.28282 8.8125C9.6625 8.5 10.4211 8.125 11.8758 8.125H13.3461C12.4337 8.85742 11.7734 9.857 11.4578 10.9836C11.3822 11.2423 11.2243 11.4693 11.008 11.6302C10.7917 11.791 10.5289 11.877 10.2594 11.875H6.1875C6.03262 11.1162 5.60151 10.442 4.97776 9.983C4.35401 9.52402 3.58205 9.31299 2.81155 9.39082C2.04105 9.46866 1.32689 9.82982 0.807543 10.4043C0.288191 10.9787 0.000640869 11.7256 0.000640869 12.5C0.000640869 13.2744 0.288191 14.0213 0.807543 14.5957C1.32689 15.1702 2.04105 15.5313 2.81155 15.6092C3.58205 15.687 4.35401 15.476 4.97776 15.017C5.60151 14.558 6.03262 13.8838 6.1875 13.125H10.2594C10.8015 13.1262 11.3292 12.9507 11.7625 12.625C12.1959 12.2994 12.5113 11.8413 12.6609 11.3203C12.8168 10.7661 13.0806 10.2482 13.4371 9.79609C13.7935 9.34403 14.2357 8.96677 14.7383 8.68594L15.193 9.86797C14.5595 10.2734 14.0935 10.8937 13.8805 11.6151C13.6676 12.3364 13.7219 13.1103 14.0335 13.7948C14.3451 14.4793 14.8932 15.0285 15.5771 15.3415C16.2609 15.6545 17.0348 15.7104 17.7565 15.4989C18.4783 15.2873 19.0995 14.8226 19.5063 14.1899C19.913 13.5573 20.0779 12.7992 19.9707 12.0547C19.8636 11.3103 19.4915 10.6295 18.9229 10.1373C18.3542 9.64501 17.6271 9.37437 16.875 9.375ZM3.125 13.125H4.89219C4.74476 13.542 4.45465 13.8935 4.07314 14.1173C3.69163 14.3411 3.24329 14.4228 2.80736 14.348C2.37142 14.2732 1.97596 14.0467 1.69087 13.7085C1.40579 13.3704 1.24942 12.9423 1.24942 12.5C1.24942 12.0577 1.40579 11.6296 1.69087 11.2915C1.97596 10.9533 2.37142 10.7268 2.80736 10.652C3.24329 10.5772 3.69163 10.6589 4.07314 10.8827C4.45465 11.1065 4.74476 11.458 4.89219 11.875H3.125C2.95924 11.875 2.80027 11.9408 2.68306 12.0581C2.56585 12.1753 2.5 12.3342 2.5 12.5C2.5 12.6658 2.56585 12.8247 2.68306 12.9419C2.80027 13.0592 2.95924 13.125 3.125 13.125ZM16.875 14.375C16.492 14.3745 16.1184 14.2568 15.8043 14.0376C15.4902 13.8184 15.2508 13.5083 15.1182 13.149C14.9857 12.7897 14.9663 12.3984 15.0628 12.0277C15.1592 11.6571 15.3669 11.3249 15.6578 11.0758L16.2914 12.7242C16.3509 12.879 16.4694 13.0038 16.6209 13.0712C16.7724 13.1386 16.9444 13.1431 17.0992 13.0836C17.254 13.0241 17.3788 12.9056 17.4462 12.7541C17.5136 12.6026 17.5181 12.4306 17.4586 12.2758L16.8242 10.625H16.875C17.3723 10.625 17.8492 10.8225 18.2008 11.1742C18.5525 11.5258 18.75 12.0027 18.75 12.5C18.75 12.9973 18.5525 13.4742 18.2008 13.8258C17.8492 14.1775 17.3723 14.375 16.875 14.375Z" fill="#AFB1B5"/>
</g>
</svg>
