<svg width="44" height="44" viewBox="0 0 44 44" fill="none" xmlns="http://www.w3.org/2000/svg">
<rect x="1.5" y="1.5" width="41" height="41" rx="20.5" fill="#FFC844"/>
<path d="M28.25 16.375H26.0844L25.0195 14.7781C24.9625 14.6926 24.8852 14.6225 24.7946 14.574C24.704 14.5255 24.6028 14.5001 24.5 14.5H19.5C19.3972 14.5001 19.296 14.5255 19.2054 14.574C19.1148 14.6225 19.0375 14.6926 18.9805 14.7781L17.9148 16.375H15.75C15.2527 16.375 14.7758 16.5725 14.4242 16.9242C14.0725 17.2758 13.875 17.7527 13.875 18.25V27C13.875 27.4973 14.0725 27.9742 14.4242 28.3258C14.7758 28.6775 15.2527 28.875 15.75 28.875H28.25C28.7473 28.875 29.2242 28.6775 29.5758 28.3258C29.9275 27.9742 30.125 27.4973 30.125 27V18.25C30.125 17.7527 29.9275 17.2758 29.5758 16.9242C29.2242 16.5725 28.7473 16.375 28.25 16.375ZM24.8125 22.3125C24.8125 22.8688 24.6475 23.4125 24.3385 23.875C24.0295 24.3376 23.5902 24.698 23.0763 24.9109C22.5624 25.1238 21.9969 25.1795 21.4513 25.071C20.9057 24.9624 20.4046 24.6946 20.0113 24.3012C19.6179 23.9079 19.3501 23.4068 19.2415 22.8612C19.133 22.3156 19.1887 21.7501 19.4016 21.2362C19.6145 20.7223 19.9749 20.283 20.4375 19.974C20.9 19.665 21.4437 19.5 22 19.5C22.7459 19.5 23.4613 19.7963 23.9887 20.3238C24.5162 20.8512 24.8125 21.5666 24.8125 22.3125Z" fill="#222427"/>
<rect x="1.5" y="1.5" width="41" height="41" rx="20.5" stroke="#F9FAFB" stroke-width="3"/>
</svg>
