<svg width="24" height="24" viewBox="0 0 24 24" fill="none" xmlns="http://www.w3.org/2000/svg">
<g id="ListChecks">
<path id="Vector" d="M21 12.0001C21 12.199 20.921 12.3897 20.7803 12.5304C20.6397 12.671 20.4489 12.7501 20.25 12.7501H12C11.8011 12.7501 11.6103 12.671 11.4697 12.5304C11.329 12.3897 11.25 12.199 11.25 12.0001C11.25 11.8011 11.329 11.6104 11.4697 11.4697C11.6103 11.3291 11.8011 11.2501 12 11.2501H20.25C20.4489 11.2501 20.6397 11.3291 20.7803 11.4697C20.921 11.6104 21 11.8011 21 12.0001ZM12 6.75005H20.25C20.4489 6.75005 20.6397 6.67103 20.7803 6.53038C20.921 6.38973 21 6.19896 21 6.00005C21 5.80114 20.921 5.61037 20.7803 5.46972C20.6397 5.32907 20.4489 5.25005 20.25 5.25005H12C11.8011 5.25005 11.6103 5.32907 11.4697 5.46972C11.329 5.61037 11.25 5.80114 11.25 6.00005C11.25 6.19896 11.329 6.38973 11.4697 6.53038C11.6103 6.67103 11.8011 6.75005 12 6.75005ZM20.25 17.2501H12C11.8011 17.2501 11.6103 17.3291 11.4697 17.4697C11.329 17.6104 11.25 17.8011 11.25 18.0001C11.25 18.199 11.329 18.3897 11.4697 18.5304C11.6103 18.671 11.8011 18.7501 12 18.7501H20.25C20.4489 18.7501 20.6397 18.671 20.7803 18.5304C20.921 18.3897 21 18.199 21 18.0001C21 17.8011 20.921 17.6104 20.7803 17.4697C20.6397 17.3291 20.4489 17.2501 20.25 17.2501ZM7.71937 3.96943L5.25 6.43974L4.28062 5.46943C4.13989 5.3287 3.94902 5.24963 3.75 5.24963C3.55097 5.24963 3.3601 5.3287 3.21937 5.46943C3.07864 5.61016 2.99958 5.80103 2.99958 6.00005C2.99958 6.19907 3.07864 6.38995 3.21937 6.53068L4.71937 8.03068C4.78903 8.10041 4.87174 8.15573 4.96279 8.19347C5.05384 8.23121 5.15144 8.25064 5.25 8.25064C5.34856 8.25064 5.44615 8.23121 5.5372 8.19347C5.62825 8.15573 5.71097 8.10041 5.78062 8.03068L8.78062 5.03068C8.92135 4.88995 9.00041 4.69907 9.00041 4.50005C9.00041 4.30103 8.92135 4.11016 8.78062 3.96943C8.63989 3.8287 8.44902 3.74963 8.25 3.74963C8.05097 3.74963 7.8601 3.8287 7.71937 3.96943ZM7.71937 9.96943L5.25 12.4397L4.28062 11.4694C4.13989 11.3287 3.94902 11.2496 3.75 11.2496C3.55097 11.2496 3.3601 11.3287 3.21937 11.4694C3.07864 11.6102 2.99958 11.801 2.99958 12.0001C2.99958 12.0986 3.01899 12.1962 3.0567 12.2872C3.09441 12.3783 3.14969 12.461 3.21937 12.5307L4.71937 14.0307C4.78903 14.1004 4.87174 14.1557 4.96279 14.1935C5.05384 14.2312 5.15144 14.2506 5.25 14.2506C5.34856 14.2506 5.44615 14.2312 5.5372 14.1935C5.62825 14.1557 5.71097 14.1004 5.78062 14.0307L8.78062 11.0307C8.92135 10.8899 9.00041 10.6991 9.00041 10.5001C9.00041 10.301 8.92135 10.1102 8.78062 9.96943C8.63989 9.82869 8.44902 9.74963 8.25 9.74963C8.05097 9.74963 7.8601 9.82869 7.71937 9.96943ZM7.71937 15.9694L5.25 18.4397L4.28062 17.4694C4.21094 17.3997 4.12821 17.3445 4.03717 17.3068C3.94612 17.269 3.84854 17.2496 3.75 17.2496C3.65145 17.2496 3.55387 17.269 3.46283 17.3068C3.37178 17.3445 3.28906 17.3997 3.21937 17.4694C3.14969 17.5391 3.09441 17.6218 3.0567 17.7129C3.01899 17.8039 2.99958 17.9015 2.99958 18.0001C2.99958 18.0986 3.01899 18.1962 3.0567 18.2872C3.09441 18.3783 3.14969 18.461 3.21937 18.5307L4.71937 20.0307C4.78903 20.1004 4.87174 20.1557 4.96279 20.1935C5.05384 20.2312 5.15144 20.2506 5.25 20.2506C5.34856 20.2506 5.44615 20.2312 5.5372 20.1935C5.62825 20.1557 5.71097 20.1004 5.78062 20.0307L8.78062 17.0307C8.92135 16.8899 9.00041 16.6991 9.00041 16.5001C9.00041 16.301 8.92135 16.1102 8.78062 15.9694C8.63989 15.8287 8.44902 15.7496 8.25 15.7496C8.05097 15.7496 7.8601 15.8287 7.71937 15.9694Z" fill="#8B8E93"/>
</g>
</svg>
