<svg width="24" height="24" viewBox="0 0 24 24" fill="none" xmlns="http://www.w3.org/2000/svg">
<g id="ListChecks">
<path id="Vector" d="M8.78068 9.96943C8.85041 10.0391 8.90573 10.1218 8.94347 10.2128C8.98121 10.3039 9.00064 10.4015 9.00064 10.5001C9.00064 10.5986 8.98121 10.6962 8.94347 10.7873C8.90573 10.8783 8.85041 10.961 8.78068 11.0307L5.78068 14.0307C5.71102 14.1004 5.6283 14.1557 5.53726 14.1935C5.44621 14.2312 5.34861 14.2506 5.25005 14.2506C5.15149 14.2506 5.05389 14.2312 4.96285 14.1935C4.8718 14.1557 4.78908 14.1004 4.71943 14.0307L3.21943 12.5307C3.14974 12.461 3.09447 12.3783 3.05676 12.2872C3.01904 12.1962 2.99963 12.0986 2.99963 12.0001C2.99963 11.801 3.0787 11.6102 3.21943 11.4694C3.36016 11.3287 3.55103 11.2496 3.75005 11.2496C3.94907 11.2496 4.13995 11.3287 4.28068 11.4694L5.25005 12.4397L7.71943 9.96943C7.78908 9.89969 7.8718 9.84437 7.96285 9.80663C8.05389 9.76889 8.15149 9.74946 8.25005 9.74946C8.34861 9.74946 8.44621 9.76889 8.53726 9.80663C8.6283 9.84437 8.71102 9.89969 8.78068 9.96943ZM7.71943 3.96943L5.25005 6.43974L4.28068 5.46943C4.13995 5.3287 3.94907 5.24963 3.75005 5.24963C3.55103 5.24963 3.36016 5.3287 3.21943 5.46943C3.0787 5.61016 2.99963 5.80103 2.99963 6.00005C2.99963 6.19907 3.0787 6.38995 3.21943 6.53068L4.71943 8.03068C4.78908 8.10041 4.8718 8.15573 4.96285 8.19347C5.05389 8.23121 5.15149 8.25064 5.25005 8.25064C5.34861 8.25064 5.44621 8.23121 5.53726 8.19347C5.6283 8.15573 5.71102 8.10041 5.78068 8.03068L8.78068 5.03068C8.92141 4.88995 9.00047 4.69907 9.00047 4.50005C9.00047 4.30103 8.92141 4.11016 8.78068 3.96943C8.63995 3.8287 8.44907 3.74963 8.25005 3.74963C8.05103 3.74963 7.86016 3.8287 7.71943 3.96943ZM7.71943 15.9694L5.25005 18.4397L4.28068 17.4694C4.21099 17.3997 4.12827 17.3445 4.03722 17.3068C3.94618 17.269 3.8486 17.2496 3.75005 17.2496C3.6515 17.2496 3.55392 17.269 3.46288 17.3068C3.37183 17.3445 3.28911 17.3997 3.21943 17.4694C3.14974 17.5391 3.09447 17.6218 3.05676 17.7129C3.01904 17.8039 2.99963 17.9015 2.99963 18.0001C2.99963 18.0986 3.01904 18.1962 3.05676 18.2872C3.09447 18.3783 3.14974 18.461 3.21943 18.5307L4.71943 20.0307C4.78908 20.1004 4.8718 20.1557 4.96285 20.1935C5.05389 20.2312 5.15149 20.2506 5.25005 20.2506C5.34861 20.2506 5.44621 20.2312 5.53726 20.1935C5.6283 20.1557 5.71102 20.1004 5.78068 20.0307L8.78068 17.0307C8.92141 16.8899 9.00047 16.6991 9.00047 16.5001C9.00047 16.301 8.92141 16.1102 8.78068 15.9694C8.63995 15.8287 8.44907 15.7496 8.25005 15.7496C8.05103 15.7496 7.86016 15.8287 7.71943 15.9694ZM20.2501 4.50005H12.0001C11.8011 4.50005 11.6104 4.57907 11.4697 4.71972C11.3291 4.86037 11.2501 5.05114 11.2501 5.25005V6.75005C11.2501 6.94896 11.3291 7.13973 11.4697 7.28038C11.6104 7.42103 11.8011 7.50005 12.0001 7.50005H20.2501C20.449 7.50005 20.6397 7.42103 20.7804 7.28038C20.921 7.13973 21.0001 6.94896 21.0001 6.75005V5.25005C21.0001 5.05114 20.921 4.86037 20.7804 4.71972C20.6397 4.57907 20.449 4.50005 20.2501 4.50005ZM20.2501 16.5001H12.0001C11.8011 16.5001 11.6104 16.5791 11.4697 16.7197C11.3291 16.8604 11.2501 17.0511 11.2501 17.2501V18.7501C11.2501 18.949 11.3291 19.1397 11.4697 19.2804C11.6104 19.421 11.8011 19.5001 12.0001 19.5001H20.2501C20.449 19.5001 20.6397 19.421 20.7804 19.2804C20.921 19.1397 21.0001 18.949 21.0001 18.7501V17.2501C21.0001 17.0511 20.921 16.8604 20.7804 16.7197C20.6397 16.5791 20.449 16.5001 20.2501 16.5001ZM20.2501 10.5001H12.0001C11.8011 10.5001 11.6104 10.5791 11.4697 10.7197C11.3291 10.8604 11.2501 11.0511 11.2501 11.2501V12.7501C11.2501 12.949 11.3291 13.1397 11.4697 13.2804C11.6104 13.421 11.8011 13.5001 12.0001 13.5001H20.2501C20.449 13.5001 20.6397 13.421 20.7804 13.2804C20.921 13.1397 21.0001 12.949 21.0001 12.7501V11.2501C21.0001 11.0511 20.921 10.8604 20.7804 10.7197C20.6397 10.5791 20.449 10.5001 20.2501 10.5001Z" fill="#FFC844"/>
</g>
</svg>
