<svg width="25" height="24" viewBox="0 0 25 24" fill="none" xmlns="http://www.w3.org/2000/svg">
<g id="Notepad">
<path id="Vector" d="M16.15 12C16.15 12.1989 16.071 12.3897 15.9303 12.5303C15.7897 12.671 15.5989 12.75 15.4 12.75H9.39999C9.20108 12.75 9.01032 12.671 8.86966 12.5303C8.72901 12.3897 8.64999 12.1989 8.64999 12C8.64999 11.8011 8.72901 11.6103 8.86966 11.4697C9.01032 11.329 9.20108 11.25 9.39999 11.25H15.4C15.5989 11.25 15.7897 11.329 15.9303 11.4697C16.071 11.6103 16.15 11.8011 16.15 12ZM15.4 14.25H9.39999C9.20108 14.25 9.01032 14.329 8.86966 14.4697C8.72901 14.6103 8.64999 14.8011 8.64999 15C8.64999 15.1989 8.72901 15.3897 8.86966 15.5303C9.01032 15.671 9.20108 15.75 9.39999 15.75H15.4C15.5989 15.75 15.7897 15.671 15.9303 15.5303C16.071 15.3897 16.15 15.1989 16.15 15C16.15 14.8011 16.071 14.6103 15.9303 14.4697C15.7897 14.329 15.5989 14.25 15.4 14.25ZM20.65 4.5V18.75C20.65 19.5456 20.3339 20.3087 19.7713 20.8713C19.2087 21.4339 18.4456 21.75 17.65 21.75H7.14999C6.35434 21.75 5.59128 21.4339 5.02867 20.8713C4.46606 20.3087 4.14999 19.5456 4.14999 18.75V4.5C4.14999 4.10218 4.30803 3.72064 4.58933 3.43934C4.87064 3.15804 5.25217 3 5.64999 3H7.14999V2.25C7.14999 2.05109 7.22901 1.86032 7.36966 1.71967C7.51032 1.57902 7.70108 1.5 7.89999 1.5C8.09891 1.5 8.28967 1.57902 8.43032 1.71967C8.57098 1.86032 8.64999 2.05109 8.64999 2.25V3H11.65V2.25C11.65 2.05109 11.729 1.86032 11.8697 1.71967C12.0103 1.57902 12.2011 1.5 12.4 1.5C12.5989 1.5 12.7897 1.57902 12.9303 1.71967C13.071 1.86032 13.15 2.05109 13.15 2.25V3H16.15V2.25C16.15 2.05109 16.229 1.86032 16.3697 1.71967C16.5103 1.57902 16.7011 1.5 16.9 1.5C17.0989 1.5 17.2897 1.57902 17.4303 1.71967C17.571 1.86032 17.65 2.05109 17.65 2.25V3H19.15C19.5478 3 19.9293 3.15804 20.2107 3.43934C20.492 3.72064 20.65 4.10218 20.65 4.5ZM19.15 4.5H17.65V5.25C17.65 5.44891 17.571 5.63968 17.4303 5.78033C17.2897 5.92098 17.0989 6 16.9 6C16.7011 6 16.5103 5.92098 16.3697 5.78033C16.229 5.63968 16.15 5.44891 16.15 5.25V4.5H13.15V5.25C13.15 5.44891 13.071 5.63968 12.9303 5.78033C12.7897 5.92098 12.5989 6 12.4 6C12.2011 6 12.0103 5.92098 11.8697 5.78033C11.729 5.63968 11.65 5.44891 11.65 5.25V4.5H8.64999V5.25C8.64999 5.44891 8.57098 5.63968 8.43032 5.78033C8.28967 5.92098 8.09891 6 7.89999 6C7.70108 6 7.51032 5.92098 7.36966 5.78033C7.22901 5.63968 7.14999 5.44891 7.14999 5.25V4.5H5.64999V18.75C5.64999 19.1478 5.80803 19.5294 6.08933 19.8107C6.37064 20.092 6.75217 20.25 7.14999 20.25H17.65C18.0478 20.25 18.4293 20.092 18.7107 19.8107C18.992 19.5294 19.15 19.1478 19.15 18.75V4.5Z" fill="#8B8E93"/>
</g>
</svg>
