<svg width="22" height="14" viewBox="0 0 22 14" fill="none" xmlns="http://www.w3.org/2000/svg">
<path d="M21.1175 13.6562C21.0313 13.7048 20.9365 13.7358 20.8383 13.7476C20.7402 13.7594 20.6407 13.7516 20.5455 13.7248C20.4504 13.6979 20.3615 13.6525 20.284 13.5912C20.2064 13.5299 20.1418 13.4539 20.0937 13.3675L13.5612 1.75H11.7499V2.5C11.7499 2.69891 11.6709 2.88968 11.5303 3.03033C11.3896 3.17098 11.1989 3.25 10.9999 3.25C10.801 3.25 10.6103 3.17098 10.4696 3.03033C10.329 2.88968 10.2499 2.69891 10.2499 2.5V1.75H8.4387L1.9062 13.3675C1.80873 13.5415 1.64612 13.6697 1.45413 13.7239C1.26213 13.7781 1.0565 13.7537 0.882448 13.6562C0.7084 13.5588 0.580199 13.3962 0.526048 13.2042C0.471896 13.0122 0.496231 12.8065 0.593698 12.6325L6.71745 1.75H1.24995C1.05104 1.75 0.86027 1.67098 0.719618 1.53033C0.578966 1.38968 0.499948 1.19891 0.499948 1C0.499948 0.801088 0.578966 0.610322 0.719618 0.46967C0.86027 0.329018 1.05104 0.25 1.24995 0.25H20.75C20.9489 0.25 21.1396 0.329018 21.2803 0.46967C21.4209 0.610322 21.5 0.801088 21.5 1C21.5 1.19891 21.4209 1.38968 21.2803 1.53033C21.1396 1.67098 20.9489 1.75 20.75 1.75H15.2824L21.4062 12.6325C21.4547 12.7186 21.4858 12.8135 21.4975 12.9116C21.5093 13.0098 21.5015 13.1093 21.4747 13.2044C21.4479 13.2996 21.4025 13.3885 21.3412 13.466C21.2799 13.5435 21.2038 13.6082 21.1175 13.6562ZM10.9999 5.5C10.801 5.5 10.6103 5.57902 10.4696 5.71967C10.329 5.86032 10.2499 6.05109 10.2499 6.25V7.75C10.2499 7.94891 10.329 8.13968 10.4696 8.28033C10.6103 8.42098 10.801 8.5 10.9999 8.5C11.1989 8.5 11.3896 8.42098 11.5303 8.28033C11.6709 8.13968 11.7499 7.94891 11.7499 7.75V6.25C11.7499 6.05109 11.6709 5.86032 11.5303 5.71967C11.3896 5.57902 11.1989 5.5 10.9999 5.5ZM10.9999 10.75C10.801 10.75 10.6103 10.829 10.4696 10.9697C10.329 11.1103 10.2499 11.3011 10.2499 11.5V13C10.2499 13.1989 10.329 13.3897 10.4696 13.5303C10.6103 13.671 10.801 13.75 10.9999 13.75C11.1989 13.75 11.3896 13.671 11.5303 13.5303C11.6709 13.3897 11.7499 13.1989 11.7499 13V11.5C11.7499 11.3011 11.6709 11.1103 11.5303 10.9697C11.3896 10.829 11.1989 10.75 10.9999 10.75Z" fill="#8B8E93"/>
</svg>
