<svg width="17" height="17" viewBox="0 0 17 17" fill="none" xmlns="http://www.w3.org/2000/svg">
<path d="M9.8961 1.96331C9.91732 1.88399 9.95395 1.80963 10.0039 1.74447C10.0539 1.67932 10.1162 1.62464 10.1873 1.58358C10.2584 1.54252 10.3369 1.51586 10.4183 1.50515C10.4997 1.49443 10.5824 1.49986 10.6617 1.52112C11.8204 1.82342 12.8775 2.42912 13.7242 3.27583C14.5709 4.12255 15.1766 5.17966 15.4789 6.33831C15.5002 6.41761 15.5056 6.50033 15.4949 6.58174C15.4842 6.66314 15.4575 6.74164 15.4165 6.81274C15.3754 6.88384 15.3207 6.94615 15.2556 6.99612C15.1904 7.04608 15.116 7.08272 15.0367 7.10393C14.9839 7.1178 14.9296 7.12489 14.875 7.12503C14.7373 7.12502 14.6034 7.07952 14.4942 6.99561C14.385 6.91169 14.3066 6.79404 14.2711 6.66096C14.0245 5.71512 13.5302 4.85214 12.8391 4.16098C12.1479 3.46982 11.2849 2.97548 10.3391 2.72893C10.2597 2.7078 10.1852 2.67122 10.12 2.6213C10.0548 2.57137 10 2.50907 9.95885 2.43796C9.91771 2.36685 9.89099 2.28832 9.88023 2.20688C9.86946 2.12543 9.87485 2.04266 9.8961 1.96331ZM9.71407 5.22893C10.7914 5.51643 11.4836 6.20862 11.7711 7.28596C11.8066 7.41904 11.885 7.53669 11.9942 7.62061C12.1034 7.70452 12.2373 7.75002 12.375 7.75003C12.4296 7.74989 12.4839 7.7428 12.5367 7.72893C12.616 7.70772 12.6904 7.67108 12.7556 7.62112C12.8207 7.57115 12.8754 7.50884 12.9165 7.43774C12.9575 7.36664 12.9842 7.28814 12.9949 7.20674C13.0056 7.12533 13.0002 7.04261 12.9789 6.96331C12.5789 5.46643 11.5336 4.42112 10.0367 4.02112C9.95742 3.99993 9.87472 3.99457 9.79334 4.00535C9.71196 4.01613 9.63351 4.04283 9.56245 4.08392C9.49139 4.12502 9.42912 4.17971 9.3792 4.24487C9.32928 4.31003 9.29268 4.38439 9.27149 4.4637C9.25031 4.543 9.24495 4.62571 9.25572 4.70708C9.2665 4.78846 9.2932 4.86692 9.3343 4.93797C9.37539 5.00903 9.43008 5.0713 9.49525 5.12122C9.56041 5.17115 9.63476 5.20775 9.71407 5.22893ZM16.1156 12.6782C15.9763 13.7368 15.4564 14.7085 14.6531 15.4118C13.8497 16.1151 12.8177 16.5019 11.75 16.5C5.54688 16.5 0.500007 11.4531 0.500007 5.25002C0.498093 4.18228 0.884919 3.15035 1.58824 2.34697C2.29155 1.54359 3.26326 1.0237 4.32188 0.8844C4.58958 0.851713 4.86067 0.90648 5.09468 1.04052C5.3287 1.17457 5.51309 1.3807 5.62032 1.62815L7.27032 5.31174V5.32112C7.35242 5.51054 7.38633 5.71734 7.36901 5.92305C7.3517 6.12877 7.2837 6.32699 7.1711 6.50003C7.15704 6.52112 7.14219 6.54065 7.12657 6.56018L5.50001 8.48831C6.08516 9.67737 7.32891 10.9102 8.5336 11.4969L10.4352 9.87893C10.4538 9.86323 10.4734 9.84863 10.4938 9.83518C10.6666 9.71987 10.8655 9.64948 11.0725 9.63039C11.2794 9.61129 11.4878 9.64408 11.6789 9.72581L11.6891 9.73049L15.3695 11.3797C15.6174 11.4866 15.8241 11.6708 15.9585 11.9048C16.093 12.1389 16.1481 12.4102 16.1156 12.6782ZM14.875 12.5219C14.875 12.5219 14.8695 12.5219 14.8664 12.5219L11.1945 10.8774L9.29219 12.4953C9.27374 12.511 9.25444 12.5256 9.23438 12.5391C9.0545 12.6591 8.84657 12.7304 8.6309 12.746C8.41523 12.7616 8.1992 12.721 8.00391 12.6281C6.54063 11.9211 5.08204 10.4735 4.37423 9.02581C4.2805 8.83194 4.23844 8.61716 4.25213 8.40226C4.26582 8.18736 4.33478 7.97965 4.45235 7.79924C4.4656 7.77806 4.48049 7.75795 4.49688 7.73909L6.12501 5.80862L4.48438 2.13674C4.48407 2.13363 4.48407 2.13049 4.48438 2.12737C3.72677 2.2262 3.03116 2.59781 2.52783 3.17261C2.0245 3.74742 1.74796 4.486 1.75001 5.25002C1.7529 7.9013 2.8074 10.4432 4.68214 12.3179C6.55687 14.1926 9.09873 15.2471 11.75 15.25C12.5136 15.2526 13.2519 14.9771 13.8271 14.4748C14.4022 13.9726 14.7747 13.2781 14.875 12.5211V12.5219Z" fill="#AFB1B5"/>
</svg>
