<svg width="25" height="24" viewBox="0 0 25 24" fill="none" xmlns="http://www.w3.org/2000/svg">
<g id="Wallet">
<path id="Vector" d="M20.85 6.75H5.84998C5.65106 6.75 5.4603 6.67098 5.31965 6.53033C5.17899 6.38968 5.09998 6.19891 5.09998 6C5.09998 5.80109 5.17899 5.61032 5.31965 5.46967C5.4603 5.32902 5.65106 5.25 5.84998 5.25H18.6C18.7989 5.25 18.9897 5.17098 19.1303 5.03033C19.271 4.88968 19.35 4.69891 19.35 4.5C19.35 4.30109 19.271 4.11032 19.1303 3.96967C18.9897 3.82902 18.7989 3.75 18.6 3.75H5.84998C5.25324 3.75 4.68094 3.98705 4.25899 4.40901C3.83703 4.83097 3.59998 5.40326 3.59998 6V18C3.59998 18.5967 3.83703 19.169 4.25899 19.591C4.68094 20.0129 5.25324 20.25 5.84998 20.25H20.85C21.2478 20.25 21.6293 20.092 21.9106 19.8107C22.1919 19.5294 22.35 19.1478 22.35 18.75V8.25C22.35 7.85218 22.1919 7.47064 21.9106 7.18934C21.6293 6.90804 21.2478 6.75 20.85 6.75ZM20.85 18.75H5.84998C5.65106 18.75 5.4603 18.671 5.31965 18.5303C5.17899 18.3897 5.09998 18.1989 5.09998 18V8.12156C5.3408 8.20693 5.59447 8.25037 5.84998 8.25H20.85V18.75ZM16.35 13.125C16.35 12.9025 16.416 12.685 16.5396 12.5C16.6632 12.315 16.8389 12.1708 17.0445 12.0856C17.25 12.0005 17.4762 11.9782 17.6945 12.0216C17.9127 12.065 18.1131 12.1722 18.2705 12.3295C18.4278 12.4868 18.535 12.6873 18.5784 12.9055C18.6218 13.1238 18.5995 13.35 18.5143 13.5555C18.4292 13.7611 18.285 13.9368 18.1 14.0604C17.915 14.184 17.6975 14.25 17.475 14.25C17.1766 14.25 16.8905 14.1315 16.6795 13.9205C16.4685 13.7095 16.35 13.4234 16.35 13.125Z" fill="#8B8E93"/>
</g>
</svg>
